<svg width="205" height="115" viewBox="0 0 205 115" fill="none" xmlns="http://www.w3.org/2000/svg">
<path d="M118.217 100.763C118.217 100.763 118.104 100.697 117.877 100.563C117.651 100.43 117.351 100.283 116.977 100.123C116.604 99.9499 116.197 99.7966 115.757 99.6632C115.317 99.5299 114.884 99.4632 114.457 99.4632C114.124 99.4632 113.851 99.5166 113.637 99.6232C113.424 99.7299 113.317 99.9099 113.317 100.163C113.317 100.403 113.424 100.597 113.637 100.743C113.851 100.89 114.151 101.023 114.537 101.143C114.937 101.263 115.411 101.41 115.957 101.583C116.837 101.85 117.597 102.157 118.237 102.503C118.877 102.85 119.371 103.297 119.717 103.843C120.064 104.377 120.237 105.09 120.237 105.983C120.237 106.837 120.084 107.557 119.777 108.143C119.471 108.717 119.057 109.177 118.537 109.523C118.017 109.87 117.437 110.123 116.797 110.283C116.157 110.43 115.504 110.503 114.837 110.503C114.157 110.503 113.444 110.437 112.697 110.303C111.964 110.157 111.251 109.963 110.557 109.723C109.864 109.47 109.231 109.177 108.657 108.843L110.337 105.423C110.337 105.423 110.471 105.503 110.737 105.663C111.004 105.823 111.357 106.003 111.797 106.203C112.237 106.403 112.724 106.583 113.257 106.743C113.804 106.903 114.351 106.983 114.897 106.983C115.324 106.983 115.617 106.93 115.777 106.823C115.951 106.703 116.037 106.55 116.037 106.363C116.037 106.083 115.891 105.87 115.597 105.723C115.304 105.563 114.917 105.417 114.437 105.283C113.971 105.137 113.451 104.97 112.877 104.783C112.051 104.503 111.371 104.19 110.837 103.843C110.304 103.483 109.911 103.063 109.657 102.583C109.404 102.09 109.277 101.497 109.277 100.803C109.277 99.7499 109.524 98.8699 110.017 98.1632C110.511 97.4566 111.157 96.9232 111.957 96.5632C112.771 96.1899 113.644 96.0032 114.577 96.0032C115.271 96.0032 115.937 96.0899 116.577 96.2632C117.231 96.4232 117.837 96.6232 118.397 96.8632C118.971 97.1032 119.471 97.3299 119.897 97.5432L118.217 100.763ZM124.451 96.1232L126.991 101.923L129.591 96.1232H133.831L128.931 105.623V110.323H125.051V105.583L120.231 96.1232H124.451ZM142.807 100.763C142.807 100.763 142.694 100.697 142.467 100.563C142.241 100.43 141.941 100.283 141.567 100.123C141.194 99.9499 140.787 99.7966 140.347 99.6632C139.907 99.5299 139.474 99.4632 139.047 99.4632C138.714 99.4632 138.441 99.5166 138.227 99.6232C138.014 99.7299 137.907 99.9099 137.907 100.163C137.907 100.403 138.014 100.597 138.227 100.743C138.441 100.89 138.741 101.023 139.127 101.143C139.527 101.263 140.001 101.41 140.547 101.583C141.427 101.85 142.187 102.157 142.827 102.503C143.467 102.85 143.961 103.297 144.307 103.843C144.654 104.377 144.827 105.09 144.827 105.983C144.827 106.837 144.674 107.557 144.367 108.143C144.061 108.717 143.647 109.177 143.127 109.523C142.607 109.87 142.027 110.123 141.387 110.283C140.747 110.43 140.094 110.503 139.427 110.503C138.747 110.503 138.034 110.437 137.287 110.303C136.554 110.157 135.841 109.963 135.147 109.723C134.454 109.47 133.821 109.177 133.247 108.843L134.927 105.423C134.927 105.423 135.061 105.503 135.327 105.663C135.594 105.823 135.947 106.003 136.387 106.203C136.827 106.403 137.314 106.583 137.847 106.743C138.394 106.903 138.941 106.983 139.487 106.983C139.914 106.983 140.207 106.93 140.367 106.823C140.541 106.703 140.627 106.55 140.627 106.363C140.627 106.083 140.481 105.87 140.187 105.723C139.894 105.563 139.507 105.417 139.027 105.283C138.561 105.137 138.041 104.97 137.467 104.783C136.641 104.503 135.961 104.19 135.427 103.843C134.894 103.483 134.501 103.063 134.247 102.583C133.994 102.09 133.867 101.497 133.867 100.803C133.867 99.7499 134.114 98.8699 134.607 98.1632C135.101 97.4566 135.747 96.9232 136.547 96.5632C137.361 96.1899 138.234 96.0032 139.167 96.0032C139.861 96.0032 140.527 96.0899 141.167 96.2632C141.821 96.4232 142.427 96.6232 142.987 96.8632C143.561 97.1032 144.061 97.3299 144.487 97.5432L142.807 100.763ZM157.611 99.5232H153.531V110.323H149.631V99.5232H145.531V96.1232H157.611V99.5232ZM169.152 106.923V110.323H159.032V96.1232H168.972V99.5232H162.932V101.523H168.092V104.683H162.932V106.923H169.152ZM181.705 110.323V102.843L179.325 108.103H177.245L174.865 102.843V110.323H170.965V96.1232H175.225L178.285 102.803L181.365 96.1232H185.605V110.323H181.705ZM196.635 100.763C196.635 100.763 196.522 100.697 196.295 100.563C196.069 100.43 195.769 100.283 195.395 100.123C195.022 99.9499 194.615 99.7966 194.175 99.6632C193.735 99.5299 193.302 99.4632 192.875 99.4632C192.542 99.4632 192.269 99.5166 192.055 99.6232C191.842 99.7299 191.735 99.9099 191.735 100.163C191.735 100.403 191.842 100.597 192.055 100.743C192.269 100.89 192.569 101.023 192.955 101.143C193.355 101.263 193.829 101.41 194.375 101.583C195.255 101.85 196.015 102.157 196.655 102.503C197.295 102.85 197.789 103.297 198.135 103.843C198.482 104.377 198.655 105.09 198.655 105.983C198.655 106.837 198.502 107.557 198.195 108.143C197.889 108.717 197.475 109.177 196.955 109.523C196.435 109.87 195.855 110.123 195.215 110.283C194.575 110.43 193.922 110.503 193.255 110.503C192.575 110.503 191.862 110.437 191.115 110.303C190.382 110.157 189.669 109.963 188.975 109.723C188.282 109.47 187.649 109.177 187.075 108.843L188.755 105.423C188.755 105.423 188.889 105.503 189.155 105.663C189.422 105.823 189.775 106.003 190.215 106.203C190.655 106.403 191.142 106.583 191.675 106.743C192.222 106.903 192.769 106.983 193.315 106.983C193.742 106.983 194.035 106.93 194.195 106.823C194.369 106.703 194.455 106.55 194.455 106.363C194.455 106.083 194.309 105.87 194.015 105.723C193.722 105.563 193.335 105.417 192.855 105.283C192.389 105.137 191.869 104.97 191.295 104.783C190.469 104.503 189.789 104.19 189.255 103.843C188.722 103.483 188.329 103.063 188.075 102.583C187.822 102.09 187.695 101.497 187.695 100.803C187.695 99.7499 187.942 98.8699 188.435 98.1632C188.929 97.4566 189.575 96.9232 190.375 96.5632C191.189 96.1899 192.062 96.0032 192.995 96.0032C193.689 96.0032 194.355 96.0899 194.995 96.2632C195.649 96.4232 196.255 96.6232 196.815 96.8632C197.389 97.1032 197.889 97.3299 198.315 97.5432L196.635 100.763Z" fill="white"/>
<rect x="5.08356" y="89.6323" width="97.4353" height="25.3676" rx="2" fill="url(#paint0_linear)"/>
<path d="M12.1111 110.323V96.1232H17.5711C19.1444 96.1232 20.4578 96.4432 21.5111 97.0832C22.5778 97.7099 23.3778 98.5632 23.9111 99.6432C24.4578 100.71 24.7311 101.897 24.7311 103.203C24.7311 104.643 24.4311 105.897 23.8311 106.963C23.2444 108.03 22.4111 108.857 21.3311 109.443C20.2644 110.03 19.0111 110.323 17.5711 110.323H12.1111ZM20.7711 103.203C20.7711 102.47 20.6444 101.83 20.3911 101.283C20.1378 100.723 19.7711 100.29 19.2911 99.9832C18.8111 99.6766 18.2378 99.5232 17.5711 99.5232H16.0111V106.923H17.5711C18.2511 106.923 18.8244 106.763 19.2911 106.443C19.7711 106.123 20.1378 105.683 20.3911 105.123C20.6444 104.55 20.7711 103.91 20.7711 103.203ZM36.5475 106.923V110.323H26.4275V96.1232H36.3675V99.5232H30.3275V101.523H35.4875V104.683H30.3275V106.923H36.5475ZM42.2611 103.343V110.323H38.3611V96.1232H41.4011L47.1011 103.343V96.1232H51.0011V110.323H47.9011L42.2611 103.343ZM62.0392 100.763C62.0392 100.763 61.9259 100.697 61.6992 100.563C61.4725 100.43 61.1725 100.283 60.7992 100.123C60.4259 99.9499 60.0192 99.7966 59.5792 99.6632C59.1392 99.5299 58.7059 99.4632 58.2792 99.4632C57.9459 99.4632 57.6725 99.5166 57.4592 99.6232C57.2459 99.7299 57.1392 99.9099 57.1392 100.163C57.1392 100.403 57.2459 100.597 57.4592 100.743C57.6725 100.89 57.9725 101.023 58.3592 101.143C58.7592 101.263 59.2325 101.41 59.7792 101.583C60.6592 101.85 61.4192 102.157 62.0592 102.503C62.6992 102.85 63.1925 103.297 63.5392 103.843C63.8859 104.377 64.0592 105.09 64.0592 105.983C64.0592 106.837 63.9059 107.557 63.5992 108.143C63.2925 108.717 62.8792 109.177 62.3592 109.523C61.8392 109.87 61.2592 110.123 60.6192 110.283C59.9792 110.43 59.3259 110.503 58.6592 110.503C57.9792 110.503 57.2659 110.437 56.5192 110.303C55.7859 110.157 55.0725 109.963 54.3792 109.723C53.6859 109.47 53.0525 109.177 52.4792 108.843L54.1592 105.423C54.1592 105.423 54.2925 105.503 54.5592 105.663C54.8259 105.823 55.1792 106.003 55.6192 106.203C56.0592 106.403 56.5459 106.583 57.0792 106.743C57.6259 106.903 58.1725 106.983 58.7192 106.983C59.1459 106.983 59.4392 106.93 59.5992 106.823C59.7725 106.703 59.8592 106.55 59.8592 106.363C59.8592 106.083 59.7125 105.87 59.4192 105.723C59.1259 105.563 58.7392 105.417 58.2592 105.283C57.7925 105.137 57.2725 104.97 56.6992 104.783C55.8725 104.503 55.1925 104.19 54.6592 103.843C54.1259 103.483 53.7325 103.063 53.4792 102.583C53.2259 102.09 53.0992 101.497 53.0992 100.803C53.0992 99.7499 53.3459 98.8699 53.8392 98.1632C54.3325 97.4566 54.9792 96.9232 55.7792 96.5632C56.5925 96.1899 57.4659 96.0032 58.3992 96.0032C59.0925 96.0032 59.7592 96.0899 60.3992 96.2632C61.0525 96.4232 61.6592 96.6232 62.2192 96.8632C62.7925 97.1032 63.2925 97.3299 63.7192 97.5432L62.0392 100.763ZM65.783 110.323V96.1232H69.683V110.323H65.783ZM83.1906 99.5232H79.1106V110.323H75.2106V99.5232H71.1106V96.1232H83.1906V99.5232ZM87.4911 96.1232L90.0311 101.923L92.6311 96.1232H96.8711L91.9711 105.623V110.323H88.0911V105.583L83.2711 96.1232H87.4911Z" fill="white"/>
<path fill-rule="evenodd" clip-rule="evenodd" d="M64.392 52.8292L76.4728 65.1103L108.873 32.1726L141.274 65.1103L153.355 52.8292L108.873 7.61035L64.392 52.8292Z" fill="url(#paint1_linear)"/>
<path fill-rule="evenodd" clip-rule="evenodd" d="M92.3517 63.8231L107.649 79.0901L148.676 38.1443L189.703 79.0901L205 63.8231L148.676 7.61035L92.3517 63.8231Z" fill="url(#paint2_linear)"/>
<path fill-rule="evenodd" clip-rule="evenodd" d="M-2.73233e-06 62.5084L16.9131 79.4853L62.2739 33.9537L107.635 79.4853L124.548 62.5084L62.2739 2.72208e-06L-2.73233e-06 62.5084Z" fill="url(#paint3_linear)"/>
<defs>
<linearGradient id="paint0_linear" x1="18.8306" y1="94.7058" x2="106.851" y2="108.021" gradientUnits="userSpaceOnUse">
<stop stop-color="#5056E4"/>
<stop offset="1" stop-color="#4951FF"/>
</linearGradient>
<linearGradient id="paint1_linear" x1="108.873" y1="7.61035" x2="108.873" y2="65.1103" gradientUnits="userSpaceOnUse">
<stop stop-color="#FCCB90"/>
<stop offset="1" stop-color="#D57EEB"/>
</linearGradient>
<linearGradient id="paint2_linear" x1="148.676" y1="7.61035" x2="148.676" y2="79.0901" gradientUnits="userSpaceOnUse">
<stop stop-color="#16D9E3"/>
<stop offset="0.47" stop-color="#30C7EC"/>
<stop offset="1" stop-color="#46AEF7"/>
</linearGradient>
<linearGradient id="paint3_linear" x1="24.9095" y1="11.2145" x2="26.7545" y2="84.6163" gradientUnits="userSpaceOnUse">
<stop stop-color="#5056E4"/>
<stop offset="1" stop-color="#4951FF"/>
</linearGradient>
</defs>
</svg>
