<svg width="254" height="213" viewBox="0 0 254 213" fill="none" xmlns="http://www.w3.org/2000/svg">
<path opacity="0.503534" d="M120.831 213C179.649 213 227.331 165.318 227.331 106.5C227.331 47.6817 179.649 0 120.831 0C62.0122 0 14.3305 47.6817 14.3305 106.5C14.3305 165.318 62.0122 213 120.831 213Z" fill="#EDEDED"/>
<path fill-rule="evenodd" clip-rule="evenodd" d="M205.331 69.9937C196.497 69.9937 189.337 62.8331 189.337 54C189.337 45.1669 196.497 38.0063 205.331 38.0063C214.164 38.0063 221.324 45.1669 221.324 54C221.324 62.8331 214.164 69.9937 205.331 69.9937ZM253.331 61.2348V46.765L241.926 43.8674C241.09 40.8396 239.888 37.9638 238.371 35.2902L244.387 25.1747L234.156 14.943L224.04 20.9595C221.367 19.4421 218.491 18.2405 215.463 17.404L212.565 6H198.096L195.198 17.404C192.17 18.2405 189.294 19.4421 186.621 20.9595L176.505 14.943L166.273 25.1747L172.29 35.2902C170.773 37.9638 169.571 40.8398 168.735 43.8674L157.331 46.765V61.2348L168.735 64.1326C169.571 67.1602 170.773 70.036 172.29 72.7098L166.273 82.8253L176.505 93.057L186.621 87.0405C189.294 88.5577 192.17 89.7595 195.198 90.596L198.096 102H212.565L215.463 90.596C218.491 89.7595 221.367 88.5577 224.04 87.0405L234.156 93.057L244.387 82.8253L238.371 72.7098C239.888 70.036 241.09 67.1602 241.926 64.1326L253.331 61.2348Z" fill="#597EF7"/>
<path fill-rule="evenodd" clip-rule="evenodd" d="M14.3305 60.5561L14.3305 32.4436C14.3305 28.8995 17.2066 26 20.7214 26L48.9393 26C52.4544 26 55.3305 28.8995 55.3305 32.4436L55.3305 60.5561C55.3305 64.1001 52.4544 67 48.9393 67H20.7214C17.2066 67 14.3305 64.1001 14.3305 60.5561Z" fill="#7DB308"/>
<path d="M208.649 49.0376H39.9982C37.1014 49.0376 34.7531 51.3859 34.7531 54.2827V175.395C34.7531 178.292 37.1014 180.64 39.9982 180.64H208.649C211.546 180.64 213.894 178.292 213.894 175.395V54.2827C213.894 51.3859 211.546 49.0376 208.649 49.0376Z" fill="#E4EBF7"/>
<path d="M195.728 72.4385H52.9195C51.8182 72.4385 50.9255 73.3312 50.9255 74.4324V166.597C50.9255 167.699 51.8182 168.591 52.9195 168.591H195.728C196.829 168.591 197.722 167.699 197.722 166.597V74.4324C197.722 73.3312 196.829 72.4385 195.728 72.4385Z" fill="#4E5C93"/>
<path d="M169.947 101.971H70.5868V106.637H169.947V101.971Z" fill="white"/>
<path d="M120.264 118.204H70.584V122.871H120.264V118.204Z" fill="#FAAD14"/>
<path d="M120.264 150.671H70.584V155.338H120.264V150.671Z" fill="#E4EBF7"/>
<path d="M100.389 85.6753H70.5813V90.342H100.389V85.6753Z" fill="#E4EBF7"/>
<path d="M145.223 118.143H130.295V122.809H145.223V118.143Z" fill="#E4EBF7"/>
<path d="M145.105 134.438H70.5854V139.105H145.105V134.438Z" fill="white"/>
<path d="M39.5515 42.9683H209.006C211.656 42.9683 213.804 45.0719 213.804 47.667V61.6691H34.7531V47.667C34.7531 45.0719 36.9014 42.9683 39.5515 42.9683Z" fill="#4E5C93"/>
<path d="M45.0097 55.6727C46.9012 55.6727 48.4346 54.1712 48.4346 52.319C48.4346 50.4668 46.9012 48.9653 45.0097 48.9653C43.1182 48.9653 41.5848 50.4668 41.5848 52.319C41.5848 54.1712 43.1182 55.6727 45.0097 55.6727Z" fill="#FF7A46"/>
<path d="M57.8015 55.6727C59.693 55.6727 61.2264 54.1712 61.2264 52.319C61.2264 50.4668 59.693 48.9653 57.8015 48.9653C55.91 48.9653 54.3766 50.4668 54.3766 52.319C54.3766 54.1712 55.91 55.6727 57.8015 55.6727Z" fill="#FAAD14"/>
<path d="M70.5953 55.6727C72.4868 55.6727 74.0202 54.1712 74.0202 52.319C74.0202 50.4668 72.4868 48.9653 70.5953 48.9653C68.7038 48.9653 67.1704 50.4668 67.1704 52.319C67.1704 54.1712 68.7038 55.6727 70.5953 55.6727Z" fill="#BAE637"/>
<mask id="mask0" mask-type="alpha" maskUnits="userSpaceOnUse" x="0" y="108" width="79" height="98">
<path d="M0 108.206H78.973V205.656H0V108.206Z" fill="white"/>
</mask>
<g mask="url(#mask0)">
<path fill-rule="evenodd" clip-rule="evenodd" d="M61.2234 108.206H17.7497C16.3356 108.206 15.1548 109.256 14.9568 110.656C13.6645 119.792 5.3344 124.488 1.69602 126.072C0.668032 126.52 0 127.53 0 128.651V165.827C0 190.155 39.4866 205.656 39.4866 205.656C39.4866 205.656 78.973 190.155 78.973 165.827V128.651C78.973 127.53 78.305 126.52 77.277 126.072C73.6386 124.488 65.3085 119.792 64.0162 110.656C63.8182 109.256 62.6374 108.323 61.2234 108.323V108.206Z" fill="#ADC6FF"/>
</g>
<path fill-rule="evenodd" clip-rule="evenodd" d="M57.5686 115.448C58.1044 117.104 58.8217 118.701 59.7157 120.226C61.0299 122.467 62.7308 124.556 64.7711 126.434C67.0592 128.541 69.4775 130.117 71.5791 131.256V165.626C71.5791 174.929 62.669 183.17 55.1944 188.444C49.1179 192.732 42.9292 195.813 39.4817 197.39C36.0899 195.842 30.0393 192.831 23.9973 188.598C18.8851 185.016 14.866 181.321 12.0516 177.615C10.5194 175.598 9.35013 173.574 8.57624 171.602C7.78063 169.574 7.3938 167.619 7.3938 165.626V131.256C9.49531 130.117 11.9139 128.541 14.2019 126.434C16.2422 124.556 17.943 122.467 19.2572 120.226C20.1512 118.701 20.8685 117.104 21.4044 115.448H57.5686Z" fill="#597EF7"/>
<path fill-rule="evenodd" clip-rule="evenodd" d="M41.3801 134.792L28.4012 154.486C27.7028 155.554 28.4537 156.867 29.7127 156.867H35.5264L28.3784 170.319C27.8451 171.406 29.2192 172.415 30.0619 171.555L49.5029 152.095C50.4949 151.083 49.7913 149.353 48.3876 149.353H39.5959L43.2738 135.647C43.561 134.48 42.0347 133.791 41.3801 134.792Z" fill="white"/>
<path fill-rule="evenodd" clip-rule="evenodd" d="M204.545 180.648C202.75 177.125 204.151 172.814 207.673 171.019C211.196 169.224 215.507 170.625 217.301 174.148C219.096 177.67 217.696 181.981 214.173 183.776C210.65 185.571 206.34 184.17 204.545 180.648ZM217.791 198.01L223.562 195.07L222.4 189.933C223.438 188.984 224.341 187.921 225.098 186.772L230.355 187.116L232.356 180.957L227.902 178.145C227.963 176.771 227.858 175.38 227.577 174.002L231.536 170.529L228.595 164.759L223.459 165.92C222.51 164.883 221.446 163.98 220.298 163.222L220.642 157.966L214.482 155.964L211.671 160.419C210.296 160.357 208.905 160.462 207.528 160.744L204.055 156.785L198.284 159.725L199.446 164.862C198.408 165.811 197.506 166.874 196.748 168.023L191.491 167.679L189.49 173.838L193.945 176.65C193.883 178.024 193.988 179.415 194.27 180.793L190.31 184.266L193.251 190.036L198.387 188.875C199.336 189.912 200.4 190.815 201.548 191.573L201.204 196.83L207.364 198.831L210.175 194.376C211.55 194.438 212.941 194.333 214.318 194.051L217.791 198.01Z" fill="#FF885A"/>
</svg>
