<svg width="313" height="313" viewBox="0 0 313 313" fill="none" xmlns="http://www.w3.org/2000/svg">
<path d="M61.6986 111.089H49.6567C49.2443 111.089 48.91 111.423 48.91 111.836V113.682C48.91 114.095 49.2443 114.429 49.6567 114.429H61.6986C62.1109 114.429 62.4452 114.095 62.4452 113.682V111.836C62.4452 111.423 62.1109 111.089 61.6986 111.089Z" fill="#597EF7"/>
<path d="M61.7099 117.446H49.6454C49.2393 117.446 48.91 117.775 48.91 118.181V119.949C48.91 120.355 49.2393 120.685 49.6454 120.685H61.7099C62.116 120.685 62.4452 120.355 62.4452 119.949V118.181C62.4452 117.775 62.116 117.446 61.7099 117.446Z" fill="#ADC6FF"/>
<path d="M61.7099 123.803H49.6454C49.2393 123.803 48.91 124.132 48.91 124.539V126.307C48.91 126.713 49.2393 127.042 49.6454 127.042H61.7099C62.116 127.042 62.4452 126.713 62.4452 126.307V124.539C62.4452 124.132 62.116 123.803 61.7099 123.803Z" fill="#FF7946"/>
<path d="M61.7099 130.161H49.6454C49.2393 130.161 48.91 130.49 48.91 130.896V132.664C48.91 133.07 49.2393 133.4 49.6454 133.4H61.7099C62.116 133.4 62.4452 133.07 62.4452 132.664V130.896C62.4452 130.49 62.116 130.161 61.7099 130.161Z" fill="#ADC6FF"/>
<path d="M143.91 68.5439H38.0217C36.2029 68.5439 34.7285 70.0183 34.7285 71.8371V147.878C34.7285 149.697 36.2029 151.171 38.0217 151.171H143.91C145.728 151.171 147.203 149.697 147.203 147.878V71.8371C147.203 70.0183 145.728 68.5439 143.91 68.5439Z" fill="#E4EBF7"/>
<path d="M136.659 83.2148H72.6568C71.9654 83.2148 71.4049 83.7753 71.4049 84.4667V142.601C71.4049 143.293 71.9654 143.853 72.6568 143.853H136.659C137.351 143.853 137.911 143.293 137.911 142.601V84.4667C137.911 83.7753 137.351 83.2148 136.659 83.2148Z" fill="#597EF7"/>
<path d="M126.664 101.797H79.7182V104.731H126.664V101.797Z" fill="white"/>
<path d="M103.191 112.067H79.7182V115.001H103.191V112.067Z" fill="#FAAD14"/>
<path d="M123.241 91.5278H99.7679V94.4619H123.241V91.5278Z" fill="#FAAD14"/>
<path d="M122.752 132.117H79.7182V135.051H122.752V132.117Z" fill="white"/>
<path d="M93.8997 91.5278H79.7182V94.4619H93.8997V91.5278Z" fill="white"/>
<path d="M114.928 112.067H108.081V115.001H114.928V112.067Z" fill="#E4EBF7"/>
<path d="M114.438 121.847H79.7182V124.781H114.438V121.847Z" fill="#E4EBF7"/>
<path d="M37.7412 64.6318H144.134C145.797 64.6318 147.146 65.9526 147.146 67.5819V76.3732H34.7285V67.5819C34.7285 65.9526 36.0773 64.6318 37.7412 64.6318Z" fill="#253368"/>
<path d="M41.28 72.7552C42.4676 72.7552 43.4303 71.8125 43.4303 70.6496C43.4303 69.4867 42.4676 68.5439 41.28 68.5439C40.0924 68.5439 39.1297 69.4867 39.1297 70.6496C39.1297 71.8125 40.0924 72.7552 41.28 72.7552Z" fill="#FF7946"/>
<path d="M49.5933 72.7552C50.7809 72.7552 51.7436 71.8125 51.7436 70.6496C51.7436 69.4867 50.7809 68.5439 49.5933 68.5439C48.4057 68.5439 47.443 69.4867 47.443 70.6496C47.443 71.8125 48.4057 72.7552 49.5933 72.7552Z" fill="#FAAD14"/>
<path d="M57.4176 72.7552C58.6052 72.7552 59.5679 71.8125 59.5679 70.6496C59.5679 69.4867 58.6052 68.5439 57.4176 68.5439C56.23 68.5439 55.2673 69.4867 55.2673 70.6496C55.2673 71.8125 56.23 72.7552 57.4176 72.7552Z" fill="#7CB305"/>
<path d="M66.6673 82.2368H44.8453C44.1193 82.2368 43.5308 82.8253 43.5308 83.5513V142.539C43.5308 143.265 44.1193 143.853 44.8453 143.853H66.6673C67.3932 143.853 67.9817 143.265 67.9817 142.539V83.5513C67.9817 82.8253 67.3932 82.2368 66.6673 82.2368Z" fill="white"/>
<path d="M61.6986 111.089H49.6567C49.2443 111.089 48.91 111.423 48.91 111.836V113.682C48.91 114.095 49.2443 114.429 49.6567 114.429H61.6986C62.1109 114.429 62.4452 114.095 62.4452 113.682V111.836C62.4452 111.423 62.1109 111.089 61.6986 111.089Z" fill="#597EF7"/>
<path d="M61.7099 117.446H49.6454C49.2393 117.446 48.91 117.775 48.91 118.181V119.949C48.91 120.355 49.2393 120.685 49.6454 120.685H61.7099C62.116 120.685 62.4452 120.355 62.4452 119.949V118.181C62.4452 117.775 62.116 117.446 61.7099 117.446Z" fill="#ADC6FF"/>
<path d="M61.7099 123.803H49.6454C49.2393 123.803 48.91 124.132 48.91 124.539V126.307C48.91 126.713 49.2393 127.042 49.6454 127.042H61.7099C62.116 127.042 62.4452 126.713 62.4452 126.307V124.539C62.4452 124.132 62.116 123.803 61.7099 123.803Z" fill="#FF7946"/>
<path d="M61.7099 130.161H49.6454C49.2393 130.161 48.91 130.49 48.91 130.896V132.664C48.91 133.07 49.2393 133.4 49.6454 133.4H61.7099C62.116 133.4 62.4452 133.07 62.4452 132.664V130.896C62.4452 130.49 62.116 130.161 61.7099 130.161Z" fill="#ADC6FF"/>
<path d="M55.5092 102.313C58.8484 102.313 61.5553 99.575 61.5553 96.1978C61.5553 92.8207 58.8484 90.083 55.5092 90.083C52.17 90.083 49.4631 92.8207 49.4631 96.1978C49.4631 99.575 52.17 102.313 55.5092 102.313Z" fill="#FAAD14"/>
<path d="M55.5092 102.312C57.2518 102.313 58.9056 101.535 60.0267 100.186C59.1433 98.4895 57.4037 97.4277 55.5082 97.4277C53.6127 97.4277 51.8731 98.4895 50.9897 100.186C52.1114 101.535 53.7659 102.314 55.5092 102.312Z" fill="#253368"/>
<path d="M55.5413 97.6713C56.7971 97.6713 57.8152 96.6416 57.8152 95.3715C57.8152 94.1014 56.7971 93.0718 55.5413 93.0718C54.2855 93.0718 53.2674 94.1014 53.2674 95.3715C53.2674 96.6416 54.2855 97.6713 55.5413 97.6713Z" fill="#253368"/>
<path d="M172.145 90.3064C172.145 82.0408 165.443 75.27 157.175 75.27C148.907 75.27 142.204 82.0408 142.204 90.3064C142.204 93.5778 143.941 97.8033 146.73 100.919C149.496 104.006 150.284 109.203 150.284 113.347V114.972H164.066V113.361C164.066 109.216 164.854 104.029 167.605 100.932C170.404 97.7849 172.145 93.1839 172.145 90.3064Z" fill="#FFE58F"/>
<path d="M169.682 90.2654C169.682 83.3615 164.084 77.7046 157.175 77.7046C150.266 77.7046 144.67 83.3609 144.67 90.2654C144.67 93.0005 146.12 96.5289 148.451 99.1314C150.761 101.711 152.477 106.052 152.477 109.514V110.87H161.874V109.526C161.874 106.063 163.589 101.73 165.889 99.1425C168.227 96.5135 169.682 92.6701 169.682 90.266V90.2654Z" fill="#FAAD14"/>
<path d="M160.975 122.554H153.375C153.11 122.554 152.867 122.381 152.723 122.098L151.689 119.423H162.662L161.628 122.098C161.483 122.381 161.242 122.554 160.976 122.554H160.975Z" fill="#253368"/>
<path d="M162.82 108.79H151.53C150.691 108.79 150.011 109.47 150.011 110.309V119.055C150.011 119.894 150.691 120.574 151.53 120.574H162.82C163.659 120.574 164.339 119.894 164.339 119.055V110.309C164.339 109.47 163.659 108.79 162.82 108.79Z" fill="#597EF7"/>
<path d="M158.101 111.948C158.241 111.948 158.355 112.061 158.355 112.201C158.355 112.337 158.247 112.448 158.112 112.454L158.101 112.454H150.029C149.89 112.454 149.776 112.341 149.776 112.201C149.776 112.065 149.884 111.954 150.018 111.948L150.029 111.948H158.101Z" fill="white"/>
<path d="M158.101 117.187C158.241 117.187 158.355 117.3 158.355 117.44C158.355 117.576 158.247 117.687 158.112 117.693L158.101 117.693H150.029C149.89 117.693 149.776 117.58 149.776 117.44C149.776 117.304 149.884 117.193 150.018 117.187L150.029 117.187H158.101Z" fill="white"/>
<path d="M164.293 114.567C164.433 114.567 164.546 114.68 164.546 114.82C164.546 114.956 164.438 115.067 164.304 115.073L164.293 115.073H156.221C156.081 115.073 155.968 114.96 155.968 114.82C155.968 114.684 156.075 114.573 156.21 114.567L156.221 114.567H164.293Z" fill="white"/>
<path d="M158.196 84.263L152.553 92.859C152.249 93.3251 152.576 93.8981 153.123 93.8981H155.651L152.543 99.7692C152.311 100.244 152.908 100.684 153.275 100.309L161.728 91.8169C162.159 91.3749 161.853 90.62 161.243 90.62H157.42L159.019 84.6379C159.144 84.1273 158.48 83.8277 158.196 84.263Z" fill="white"/>
<path fill-rule="evenodd" clip-rule="evenodd" d="M115.782 194.326L105.619 226.253H111.763L121.927 194.326H115.782Z" fill="#597EF7"/>
<path fill-rule="evenodd" clip-rule="evenodd" d="M101.29 197.956H94.7668H90.6549C90.3341 197.956 90.0742 198.216 90.0742 198.536V202.648V217.93V222.042C90.0742 222.363 90.3341 222.623 90.6549 222.623H94.7668H101.29C101.61 222.623 101.87 222.363 101.87 222.042V218.511C101.87 218.19 101.61 217.93 101.29 217.93H94.7668V202.648H101.29C101.61 202.648 101.87 202.388 101.87 202.068V198.536C101.87 198.216 101.61 197.956 101.29 197.956Z" fill="#CCD7EE"/>
<path fill-rule="evenodd" clip-rule="evenodd" d="M136.89 197.956H132.778H126.256C125.935 197.956 125.675 198.216 125.675 198.536V202.068C125.675 202.388 125.935 202.648 126.256 202.648H132.778V217.93H126.256C125.935 217.93 125.675 218.19 125.675 218.511V222.042C125.675 222.363 125.935 222.623 126.256 222.623H132.778H136.89C137.211 222.623 137.471 222.363 137.471 222.042V218.511V202.068V198.536C137.471 198.216 137.211 197.956 136.89 197.956Z" fill="#CCD7EE"/>
<g clip-path="url(#clip0)">
<path fill-rule="evenodd" clip-rule="evenodd" d="M130.021 183.535C133.134 187.846 139.072 188.975 143.549 186.109L184.119 160.152C190.086 156.335 191.617 148.287 187.469 142.545C183.37 136.871 175.375 135.743 169.866 140.061L131.963 169.776C127.726 173.097 126.869 179.172 130.021 183.535Z" fill="#FFC999"/>
<path fill-rule="evenodd" clip-rule="evenodd" d="M160.072 177.402L185.841 161.057C191.282 156.827 191.286 145.978 186.96 140.613C182.634 135.248 174.749 134.473 169.462 138.894L145.306 159.091C145.306 159.091 152.535 173.69 160.072 177.402Z" fill="#597EF7"/>
<path fill-rule="evenodd" clip-rule="evenodd" d="M112.919 125.755C110.314 127.103 109.125 130.183 110.151 132.932L128.177 181.236C130.248 186.783 136.652 189.334 141.968 186.729C147.165 184.182 149.128 177.774 146.251 172.754L120.611 128.022C119.067 125.329 115.677 124.329 112.919 125.755Z" fill="#FFC999"/>
<path fill-rule="evenodd" clip-rule="evenodd" d="M201.22 136.787L194.695 129.666L196.752 106.229L215 107.929L214.908 131.121L201.22 136.787Z" fill="#FFC999"/>
<path fill-rule="evenodd" clip-rule="evenodd" d="M192.088 103.914C192.088 103.914 189.379 100.935 188.142 102.847C186.906 104.76 188.756 111.787 191.781 112.06C195.821 112.424 192.088 103.914 192.088 103.914Z" fill="#FFC999"/>
<path fill-rule="evenodd" clip-rule="evenodd" d="M209.181 122.293C209.181 122.293 203.085 126.982 195.356 121.912C189.791 118.263 189.479 105.663 190.856 96.4641C191.635 91.2585 194.131 88.5226 199.272 87.1339C204.414 85.7451 218.227 86.1203 217.839 101.497C217.407 118.623 209.181 122.293 209.181 122.293Z" fill="#FFC999"/>
<path d="M199.669 99.1604L199.619 99.1668C199.485 99.1964 199.394 99.3179 199.399 99.4508L199.406 99.501L200.114 102.715L198.116 111.363C198.08 111.519 198.181 111.669 198.332 111.701L198.378 111.706L202.06 111.852C202.215 111.858 202.346 111.738 202.352 111.583C202.357 111.444 202.26 111.324 202.128 111.297L202.083 111.292L198.739 111.159L200.675 102.779C200.681 102.752 200.683 102.725 200.681 102.697L200.675 102.656L199.953 99.3803C199.924 99.2458 199.802 99.1554 199.669 99.1604Z" fill="#DD936F"/>
<path d="M203.21 98.4269C203.153 98.8358 203.438 99.2138 203.846 99.2713L206.304 99.6299L206.62 99.6748C209.017 100.012 210.473 100.132 211.344 99.9874C211.752 99.9197 212.027 99.5346 211.959 99.1272C211.895 98.7439 211.55 98.4775 211.17 98.504L210.958 98.5313C210.328 98.5973 209.179 98.5084 207.468 98.2816L206.352 98.1261L204.054 97.7906C203.646 97.7331 203.268 98.018 203.21 98.4269Z" fill="#253368"/>
<path d="M205.035 114.097C204.988 113.886 204.778 113.754 204.567 113.801L204.428 113.829L204.372 113.839C204.204 113.868 204.005 113.898 203.778 113.926C202.246 114.113 200.384 114.119 198.283 113.819C198.068 113.788 197.87 113.937 197.84 114.151C197.809 114.366 197.958 114.564 198.172 114.594C200.346 114.904 202.276 114.899 203.873 114.703L204.148 114.667C204.236 114.654 204.318 114.642 204.395 114.629L204.671 114.58C204.7 114.574 204.722 114.569 204.739 114.565C204.95 114.518 205.083 114.308 205.035 114.097Z" fill="#FF7946"/>
<path fill-rule="evenodd" clip-rule="evenodd" d="M215.89 108.033L219.064 102.2C219.064 102.2 221.218 93.7185 219.351 89.9863C216.454 84.1948 209.428 84.1384 205.305 82.4936C201.183 80.8479 201.265 79.4467 199.567 79.6299C197.869 79.8124 191.188 84.1823 190.311 88.9336C189.539 93.1107 190.289 103.834 190.289 103.834C190.289 103.834 191.751 94.4015 192.738 91.928C196.082 90.6473 208.085 90.9371 213.047 92.6306C213.047 92.6306 213.386 95.867 213.568 98.1447C216.193 100.143 215.89 108.033 215.89 108.033Z" fill="#253368"/>
<path d="M195.259 121.375C195.158 121.258 194.981 121.244 194.864 121.345C194.746 121.446 194.733 121.623 194.834 121.74C194.911 121.83 195.058 121.978 195.276 122.165C195.636 122.472 196.07 122.777 196.581 123.062C199.329 124.595 203.002 124.919 207.634 123.297C207.78 123.245 207.857 123.085 207.806 122.939C207.755 122.793 207.595 122.716 207.449 122.767C202.968 124.337 199.462 124.027 196.854 122.573C196.376 122.306 195.972 122.022 195.641 121.738L195.507 121.62C195.385 121.511 195.303 121.426 195.259 121.375Z" fill="#DD936F"/>
<path d="M199.791 102.16C199.482 102.138 199.214 102.371 199.192 102.68C199.172 102.968 199.373 103.221 199.651 103.271L199.712 103.279L202.418 103.471C202.727 103.493 202.995 103.26 203.017 102.951C203.037 102.663 202.836 102.41 202.558 102.36L202.497 102.352L199.791 102.16Z" fill="#253368"/>
<path d="M202.14 104.04C201.573 103.776 200.992 103.636 200.42 103.692C199.937 103.74 199.496 103.93 199.125 104.275C198.899 104.487 198.887 104.842 199.098 105.068C199.309 105.295 199.664 105.307 199.891 105.096C200.076 104.923 200.286 104.832 200.53 104.808C200.87 104.775 201.266 104.871 201.667 105.057C201.88 105.156 202.042 105.255 202.124 105.313C202.377 105.493 202.727 105.434 202.907 105.182C203.086 104.929 203.028 104.579 202.775 104.4C202.641 104.304 202.422 104.171 202.14 104.04Z" fill="#253368"/>
<path d="M197.95 97.4983C196.658 96.977 195.348 96.6909 194.094 96.7705C193.211 96.8266 192.393 97.0664 191.666 97.5148C191.314 97.7314 191.205 98.192 191.421 98.5435C191.638 98.895 192.099 99.0044 192.45 98.7877C192.958 98.4744 193.54 98.304 194.189 98.2627C195.186 98.1994 196.288 98.4402 197.391 98.885C197.67 98.9974 197.931 99.1162 198.172 99.236L198.348 99.326C198.516 99.4142 198.633 99.4807 198.688 99.515C199.04 99.7313 199.5 99.6215 199.717 99.2698C199.933 98.918 199.823 98.4576 199.471 98.2413L199.312 98.147C198.993 97.9643 198.527 97.7308 197.95 97.4983Z" fill="#253368"/>
<path d="M199.773 116.65C199.619 116.641 199.486 116.759 199.477 116.914C199.469 117.053 199.564 117.175 199.696 117.204L199.741 117.21L201.947 117.339C202.102 117.348 202.234 117.23 202.243 117.075C202.252 116.936 202.157 116.815 202.025 116.785L201.98 116.779L199.773 116.65Z" fill="#DD936F"/>
<path d="M212.521 102.912C212.212 102.896 211.948 103.134 211.932 103.443C211.917 103.732 212.123 103.981 212.402 104.026L212.463 104.033L216.904 104.266C217.213 104.282 217.477 104.045 217.493 103.735C217.508 103.447 217.302 103.197 217.023 103.152L216.962 103.146L212.521 102.912Z" fill="#253368"/>
<path fill-rule="evenodd" clip-rule="evenodd" d="M212.21 102.576L203.732 102.084C203.141 102.049 202.633 102.5 202.603 103.091C202.547 104.196 202.506 105.97 202.705 107.503C202.94 109.31 204.484 110.498 206.297 110.688C208.562 110.925 210.599 111.045 211.698 109.927C213.372 108.222 213.159 105.244 213.217 103.677C213.238 103.102 212.785 102.609 212.21 102.576Z" fill="white"/>
<path d="M203.743 101.898L212.221 102.39C212.898 102.428 213.428 103.008 213.403 103.684L213.394 104.054L213.384 104.723C213.367 105.718 213.331 106.273 213.221 106.957C213.013 108.257 212.58 109.295 211.831 110.058C210.834 111.073 209.376 111.199 206.278 110.874C204.299 110.667 202.758 109.355 202.52 107.528C202.351 106.226 202.335 104.682 202.416 103.082C202.452 102.388 203.047 101.857 203.743 101.898ZM203.721 102.271C203.258 102.244 202.858 102.576 202.796 103.025L202.789 103.101C202.71 104.681 202.725 106.204 202.89 107.48C203.104 109.124 204.5 110.313 206.317 110.503L206.722 110.543C209.422 110.802 210.722 110.653 211.565 109.796C212.252 109.097 212.655 108.128 212.852 106.898L212.889 106.654C212.967 106.093 212.996 105.57 213.011 104.712L213.028 103.726C213.029 103.708 213.029 103.689 213.03 103.671C213.047 103.198 212.674 102.79 212.199 102.763L203.721 102.271Z" fill="#253368"/>
<path d="M206.287 104.328C206.081 104.316 205.904 104.474 205.892 104.68C205.825 105.852 206.614 106.869 207.684 106.932C208.755 106.994 209.657 106.074 209.724 104.903C209.736 104.696 209.579 104.52 209.373 104.508C209.166 104.496 208.989 104.653 208.978 104.859C208.932 105.64 208.362 106.222 207.728 106.185C207.094 106.148 206.594 105.503 206.639 104.723C206.651 104.517 206.493 104.34 206.287 104.328Z" fill="#253368"/>
<path fill-rule="evenodd" clip-rule="evenodd" d="M198.993 101.714L189.395 101.157C188.958 102.539 188.986 107.983 190.566 109.241C192.706 110.524 197.191 110.283 197.952 109.146C199.106 107.42 199.694 104.035 199.76 102.567C199.781 102.12 199.44 101.74 198.993 101.714Z" fill="white"/>
<path d="M189.406 100.971L199.004 101.528C199.553 101.56 199.972 102.026 199.947 102.576C199.853 104.655 199.107 107.755 198.107 109.25C197.242 110.544 192.594 110.675 190.47 109.401C189.038 108.263 188.581 103.109 189.217 101.101C189.242 101.02 189.32 100.966 189.406 100.971ZM189.533 101.353L189.509 101.444C189.014 103.47 189.471 108.13 190.682 109.095C192.635 110.265 197.063 110.139 197.797 109.042C198.752 107.615 199.482 104.576 199.574 102.559C199.59 102.213 199.327 101.921 198.982 101.901L189.533 101.353Z" fill="#253368"/>
<path d="M194.308 103.633C194.102 103.621 193.925 103.778 193.913 103.984C193.844 105.156 194.634 106.175 195.704 106.237C196.775 106.299 197.677 105.379 197.745 104.207C197.757 104.001 197.599 103.824 197.393 103.812C197.187 103.8 197.01 103.958 196.998 104.164C196.953 104.944 196.381 105.527 195.747 105.49C195.114 105.453 194.614 104.808 194.659 104.028C194.672 103.822 194.514 103.645 194.308 103.633Z" fill="#253368"/>
<path d="M202.62 101.793C202.31 101.783 202.051 102.026 202.042 102.335C202.032 102.624 202.243 102.869 202.523 102.909L202.584 102.914L213.109 103.248C213.419 103.258 213.677 103.015 213.687 102.706C213.697 102.417 213.485 102.172 213.206 102.132L213.145 102.127L202.62 101.793Z" fill="#253368"/>
<path d="M189.344 100.805C189.035 100.782 188.767 101.015 188.745 101.324C188.724 101.612 188.925 101.865 189.203 101.916L189.264 101.923L199.553 102.666C199.862 102.688 200.131 102.456 200.153 102.147C200.174 101.859 199.973 101.606 199.695 101.555L199.634 101.547L189.344 100.805Z" fill="#253368"/>
<path fill-rule="evenodd" clip-rule="evenodd" d="M217.38 103.288C218.486 102.19 220.175 101.912 221.342 103.223C223.223 105.336 221.303 113.027 216.122 113.256C214.161 112.948 215.653 105.001 217.38 103.288Z" fill="#FFC999"/>
<path fill-rule="evenodd" clip-rule="evenodd" d="M222.705 199.575C222.705 199.575 227.352 176.311 229.409 167.717C231.465 159.123 234.588 138.546 231.038 137.006C227.486 135.465 218.985 132.193 218.985 132.193C218.985 132.193 210.551 133.276 202.932 134.899C196.902 136.183 198.614 130.521 191.302 131.729C188.206 132.241 178.488 133.772 173.636 136.419C171.691 137.48 172.005 143.925 171.728 150.19C170.846 170.185 175.725 200.82 175.725 200.82C175.725 200.82 172.832 203.794 176.339 207.65C178.077 209.455 185.602 208.843 195.235 208.867C206.2 208.894 219.098 210.271 221.491 208.186C225.986 204.269 222.705 199.575 222.705 199.575Z" fill="#597EF7"/>
<path fill-rule="evenodd" clip-rule="evenodd" d="M194.405 128.724L201.756 135.781L192.935 141.957L189.112 132.546L194.405 128.724Z" fill="#597EF7"/>
<path fill-rule="evenodd" clip-rule="evenodd" d="M214.502 394.307L199.05 248.032L198.435 247.729L182.215 394.644C182.215 394.644 170.121 397.446 163.731 393.61C163.481 365.125 170.189 272.593 173.027 230.336C173.484 223.532 175.575 214.285 175.993 211.714C195.409 208.433 221.713 213.165 221.713 213.165L222.85 216.576C223.071 217.24 223.205 217.93 223.247 218.628L235.438 392.862C235.438 392.862 223.488 397.188 214.502 394.307Z" fill="#ADC6FF"/>
<path d="M188.536 242.066C188.397 241.998 188.229 242.055 188.161 242.194C188.1 242.318 188.139 242.465 188.246 242.543L188.289 242.569L199.991 248.288C200.131 248.356 200.298 248.298 200.366 248.159C200.427 248.036 200.388 247.889 200.281 247.81L200.238 247.784L188.536 242.066Z" fill="#597EF7"/>
<path fill-rule="evenodd" clip-rule="evenodd" d="M221.608 208.124C221.608 208.124 196.884 204.471 176.332 208.07C176.163 209.892 175.987 212.136 175.987 212.136C175.987 212.136 193.572 213.346 222.006 214.048C221.927 209.103 221.608 208.124 221.608 208.124Z" fill="#ADC6FF"/>
<path d="M213.599 213.348C204.593 212.615 195.348 212.333 186.715 212.764C183.087 212.945 179.664 213.251 176.48 213.692C176.326 213.713 176.219 213.855 176.24 214.008C176.262 214.161 176.403 214.269 176.557 214.247C179.723 213.809 183.13 213.504 186.743 213.324C195.348 212.894 204.57 213.176 213.553 213.906L214.979 214.027C216.375 214.149 217.68 214.275 218.88 214.402L220.226 214.549L221.185 214.662C221.277 214.673 221.346 214.682 221.393 214.688C221.547 214.708 221.687 214.599 221.707 214.446C221.727 214.292 221.618 214.151 221.465 214.132L220.912 214.064C220.525 214.018 220.082 213.968 219.588 213.914L218.534 213.802C217.035 213.646 215.382 213.493 213.599 213.348Z" fill="#597EF7"/>
<path d="M213.698 207.173C204.692 206.44 195.447 206.158 186.814 206.589C183.186 206.77 179.763 207.076 176.579 207.517C176.425 207.538 176.318 207.68 176.34 207.833C176.361 207.987 176.502 208.094 176.656 208.072C179.823 207.634 183.229 207.33 186.842 207.149C195.447 206.72 204.669 207.001 213.652 207.732L214.609 207.811C216.026 207.932 217.352 208.058 218.575 208.185L220.101 208.349L221.492 208.513C221.646 208.533 221.787 208.424 221.806 208.271C221.826 208.117 221.718 207.977 221.564 207.957L221.011 207.889C220.688 207.851 220.327 207.809 219.93 207.766L218.633 207.627C217.134 207.472 215.481 207.318 213.698 207.173Z" fill="#597EF7"/>
<path d="M196.837 207.558C196.682 207.554 196.553 207.676 196.549 207.831L196.518 209.294C196.506 209.922 196.495 210.614 196.483 211.364C196.39 217.573 196.385 224.16 196.524 230.332L196.558 231.736C196.71 237.435 196.986 242.213 197.405 245.796C197.423 245.95 197.562 246.06 197.716 246.042C197.87 246.024 197.98 245.885 197.962 245.731L197.896 245.143C197.483 241.351 197.22 236.309 197.085 230.32C196.956 224.63 196.951 218.585 197.024 212.81L197.049 211.055L197.11 207.845C197.114 207.69 196.991 207.562 196.837 207.558Z" fill="#597EF7"/>
<path fill-rule="evenodd" clip-rule="evenodd" d="M192.029 209.586C192.018 210.283 192.449 210.856 192.992 210.865C193.534 210.874 193.983 210.315 193.994 209.618C194.005 208.92 193.575 208.348 193.032 208.338C192.489 208.33 192.04 208.888 192.029 209.586Z" fill="white"/>
<path fill-rule="evenodd" clip-rule="evenodd" d="M201.716 135.206L208.521 144.159L218.687 132.212L214.964 127.558L201.716 135.206Z" fill="#597EF7"/>
<path d="M201.411 135.69C201.217 135.619 201.002 135.718 200.931 135.912L200.86 136.121L200.79 136.344C200.766 136.425 200.74 136.513 200.713 136.607L200.671 136.753C200.5 137.358 200.314 138.101 200.114 138.995L200.004 139.497C199.337 142.6 198.67 146.703 198.046 151.935L197.88 153.363C197.21 159.278 196.634 166.227 196.18 174.291L196.142 174.966C195.465 187.258 195.622 197.804 196.211 205.686C196.227 205.892 196.406 206.047 196.612 206.031C196.818 206.016 196.973 205.837 196.957 205.631L196.899 204.823C196.37 197.2 196.241 187.208 196.855 175.629L196.889 175.007C197.348 166.669 197.936 159.512 198.623 153.448L198.736 152.474C199.373 147.048 200.054 142.822 200.736 139.654L200.844 139.159C201.023 138.358 201.19 137.682 201.345 137.121L201.391 136.956C201.446 136.761 201.495 136.594 201.54 136.452L201.616 136.218C201.623 136.197 201.629 136.181 201.633 136.17C201.704 135.976 201.605 135.761 201.411 135.69Z" fill="#253368"/>
<path d="M171.674 148.726C171.492 148.574 171.235 148.601 171.086 148.781C171.023 148.858 170.989 148.945 170.962 149.057C170.931 149.185 170.909 149.364 170.893 149.6L170.885 149.722C170.857 150.216 170.853 150.935 170.872 151.856L170.882 152.295C170.943 154.629 171.132 157.974 171.436 161.99L171.55 163.454C172.309 173.022 173.576 184.899 175.278 197.804L175.46 199.17L175.39 199.348L175.33 199.51C175.206 199.85 175.082 200.225 174.966 200.627C174.685 201.603 174.497 202.572 174.447 203.484C174.363 205.007 174.669 206.247 175.48 207.084C175.623 207.233 175.86 207.237 176.008 207.093C176.157 206.949 176.161 206.712 176.017 206.564C175.378 205.904 175.12 204.86 175.194 203.525C175.241 202.676 175.418 201.76 175.685 200.834C175.773 200.527 175.867 200.235 175.962 199.965L176.089 199.615C176.132 199.5 176.166 199.416 176.188 199.365C176.214 199.303 176.223 199.236 176.214 199.17L175.924 196.978C174.24 184.125 172.992 172.324 172.253 162.856L172.153 161.548C171.886 157.97 171.713 154.95 171.643 152.737L171.62 151.87C171.602 151.018 171.605 150.344 171.626 149.869L171.632 149.763C171.64 149.61 171.651 149.484 171.663 149.387L171.676 149.297L171.682 149.293L171.721 149.253C171.853 149.095 171.833 148.859 171.674 148.726Z" fill="#253368"/>
<path d="M190.736 147.107L191.25 147.151C191.416 147.166 191.577 147.182 191.732 147.197L192.49 147.278L192.722 147.306C192.927 147.332 193.077 147.513 193.063 147.72L192.158 161.673C192.149 161.805 192.074 161.924 191.958 161.989L184.4 166.218C184.27 166.29 184.11 166.283 183.988 166.2L178.149 162.214C178.043 162.141 177.979 162.02 177.978 161.891L177.984 159.352L177.993 157.732C178.011 154.926 178.045 151.803 178.1 148.419C178.102 148.268 178.191 148.132 178.328 148.069C179.803 147.393 181.932 147.038 184.556 146.938C186.538 146.863 188.658 146.937 190.736 147.107ZM184.307 147.733C182.09 147.834 180.266 148.13 178.968 148.647L178.879 148.683L178.83 152.123C178.808 153.91 178.791 155.609 178.78 157.208L178.764 160.234L178.762 161.683L184.229 165.415L191.39 161.409L192.258 148.039L192.097 148.022C191.672 147.976 191.194 147.931 190.672 147.888C188.623 147.72 186.533 147.647 184.586 147.721L184.307 147.733Z" fill="#253368"/>
<path fill-rule="evenodd" clip-rule="evenodd" d="M201.187 141.935C201.176 142.633 201.638 143.206 202.219 143.215C202.801 143.225 203.281 142.667 203.292 141.969C203.303 141.272 202.841 140.698 202.26 140.689C201.678 140.68 201.198 141.237 201.187 141.935Z" fill="white"/>
<path fill-rule="evenodd" clip-rule="evenodd" d="M199.507 154.752C199.496 155.449 199.958 156.023 200.54 156.032C201.121 156.041 201.601 155.484 201.613 154.786C201.624 154.089 201.162 153.515 200.58 153.506C199.998 153.497 199.518 154.054 199.507 154.752Z" fill="white"/>
<path fill-rule="evenodd" clip-rule="evenodd" d="M198.442 168.631C198.431 169.329 198.893 169.902 199.474 169.911C200.056 169.92 200.536 169.363 200.548 168.665C200.559 167.968 200.096 167.394 199.515 167.385C198.933 167.375 198.453 167.934 198.442 168.631Z" fill="white"/>
<path fill-rule="evenodd" clip-rule="evenodd" d="M198.022 181.679C198.011 182.376 198.473 182.949 199.054 182.959C199.635 182.968 200.116 182.41 200.127 181.713C200.138 181.015 199.676 180.442 199.095 180.433C198.514 180.423 198.034 180.981 198.022 181.679Z" fill="white"/>
<path fill-rule="evenodd" clip-rule="evenodd" d="M197.955 198.943C197.944 199.641 198.406 200.214 198.988 200.223C199.569 200.232 200.049 199.675 200.061 198.977C200.072 198.28 199.61 197.706 199.028 197.697C198.446 197.687 197.966 198.245 197.955 198.943Z" fill="white"/>
<path d="M218.797 132.292C218.654 132.171 218.446 132.176 218.309 132.296L218.27 132.336L208.73 143.586L201.918 135.663C201.796 135.52 201.59 135.493 201.436 135.59L201.391 135.623C201.249 135.745 201.221 135.952 201.318 136.106L201.351 136.15L208.448 144.406C208.585 144.566 208.824 144.578 208.977 144.444L209.016 144.404L218.84 132.82C218.974 132.662 218.954 132.426 218.797 132.292Z" fill="#253368"/>
<path d="M190.319 132.799C190.256 132.602 190.046 132.493 189.849 132.556C189.668 132.613 189.562 132.795 189.594 132.976L189.606 133.026L192.578 142.364C192.652 142.594 192.918 142.692 193.121 142.575L193.163 142.547L201.585 136.058C201.748 135.932 201.779 135.697 201.653 135.533C201.538 135.385 201.334 135.346 201.174 135.435L201.128 135.465L193.13 141.628L190.319 132.799Z" fill="#253368"/>
<path d="M190.685 212.962C190.532 212.939 190.389 213.045 190.366 213.198L190.294 213.733L190.277 213.87C190.21 214.407 190.143 215.015 190.08 215.682C189.796 218.726 189.699 221.866 189.901 224.802C190.374 231.652 192.367 235.998 196.412 236.549C196.566 236.57 196.707 236.463 196.728 236.309C196.749 236.156 196.641 236.014 196.488 235.993C192.806 235.492 190.917 231.372 190.461 224.763C190.26 221.862 190.357 218.75 190.639 215.734L190.693 215.182C190.729 214.825 190.767 214.487 190.805 214.172L190.866 213.678L190.921 213.281C190.944 213.128 190.838 212.985 190.685 212.962Z" fill="#597EF7"/>
<path d="M219.714 104.351C219.656 104.207 219.493 104.138 219.349 104.196L219.251 104.239C219.192 104.267 219.121 104.303 219.039 104.348C218.814 104.472 218.589 104.622 218.378 104.801C217.601 105.456 217.212 106.306 217.452 107.334C217.542 107.724 217.721 107.932 218.054 108.13L218.198 108.211C218.484 108.367 218.555 108.445 218.582 108.687C218.632 109.153 218.42 109.502 218.013 109.769C217.878 109.857 217.731 109.93 217.584 109.986L217.453 110.031C217.43 110.039 217.411 110.044 217.398 110.047C217.248 110.084 217.156 110.235 217.192 110.386C217.229 110.536 217.381 110.628 217.531 110.592C217.735 110.542 218.026 110.431 218.321 110.238C218.889 109.865 219.215 109.329 219.139 108.627C219.092 108.193 218.922 107.983 218.55 107.766L218.412 107.689C218.148 107.543 218.053 107.445 217.998 107.207C217.812 106.411 218.11 105.761 218.74 105.229C218.92 105.077 219.115 104.946 219.31 104.839C219.425 104.775 219.513 104.734 219.559 104.716C219.703 104.658 219.772 104.494 219.714 104.351Z" fill="#DD936F"/>
<path fill-rule="evenodd" clip-rule="evenodd" d="M121.196 129.354C121.196 129.354 113.14 105.338 104.018 99.5088C101.302 99.609 103.848 103.186 105.738 106.113C106.705 107.61 107.343 109.501 107.343 109.501C107.343 109.501 103.618 109.112 104.332 112.273C101.348 112.129 102.428 115.469 102.428 115.469C102.428 115.469 100.134 115.473 100.872 118.576C101.379 120.709 104.253 123.226 104.911 125.47C107.451 134.124 111.624 134.602 113.299 134.868C117.54 135.538 120.143 133.924 121.196 129.354Z" fill="#FFC999"/>
<path d="M115.962 118.509L112.697 111.437L112.615 111.131C111.893 108.537 110.748 107.474 109.767 108.411C108.924 109.217 108.775 111.273 109.53 113.142C111.034 116.862 111.185 118.584 110.645 120.614L110.466 121.263C110.366 121.648 110.308 121.956 110.283 122.284C110.18 123.689 110.248 124.997 110.639 126.259C111.21 128.103 112.392 129.402 114.312 129.926C114.461 129.967 114.615 129.879 114.656 129.729C114.697 129.58 114.609 129.426 114.459 129.385C111.421 128.555 110.582 125.848 110.843 122.325C110.861 122.078 110.902 121.839 110.972 121.552L111.048 121.257C111.073 121.167 111.104 121.057 111.15 120.895L111.221 120.626C111.752 118.53 111.566 116.683 110.05 112.932C109.372 111.255 109.504 109.438 110.154 108.817C110.679 108.315 111.455 109.038 112.085 111.305L112.17 111.624L115.453 118.744C115.518 118.884 115.684 118.946 115.825 118.881C115.95 118.823 116.012 118.685 115.979 118.557L115.962 118.509Z" fill="#DD936F"/>
<path d="M104.209 112.021C104.07 112.089 104.012 112.257 104.08 112.396L104.187 112.608C104.272 112.775 104.369 112.96 104.477 113.16C104.784 113.731 105.113 114.302 105.452 114.836C105.816 115.408 106.169 115.904 106.506 116.302C107.193 117.113 107.793 117.511 108.343 117.343C109.579 116.964 109.958 116.054 109.649 114.872C109.532 114.424 109.321 113.954 109.045 113.477C108.894 113.216 108.732 112.97 108.571 112.744L108.442 112.569C108.405 112.52 108.374 112.481 108.352 112.453C108.254 112.333 108.077 112.315 107.957 112.413C107.837 112.511 107.819 112.687 107.917 112.807L108.032 112.957C108.057 112.991 108.085 113.029 108.115 113.071C108.267 113.282 108.418 113.514 108.56 113.758C108.813 114.195 109.004 114.622 109.106 115.014C109.346 115.929 109.097 116.525 108.179 116.806C107.929 116.883 107.482 116.587 106.934 115.939C106.615 115.563 106.276 115.087 105.926 114.536C105.595 114.014 105.272 113.454 104.97 112.894L104.82 112.611L104.584 112.15C104.516 112.011 104.348 111.953 104.209 112.021Z" fill="#DD936F"/>
<path d="M102.833 115.54C102.784 115.393 102.624 115.315 102.478 115.365C102.331 115.414 102.252 115.573 102.302 115.72L102.365 115.895L102.449 116.111C102.479 116.187 102.511 116.265 102.545 116.347C102.742 116.813 102.969 117.28 103.225 117.717C104.02 119.075 104.918 119.877 105.942 119.796C106.95 119.717 107.42 119.058 107.447 118.087C107.457 117.733 107.408 117.361 107.321 116.991C107.274 116.79 107.226 116.633 107.193 116.54C107.141 116.394 106.98 116.318 106.835 116.37C106.689 116.422 106.613 116.583 106.665 116.729L106.696 116.823C106.719 116.899 106.747 117 106.775 117.12C106.852 117.446 106.895 117.772 106.887 118.071C106.867 118.783 106.581 119.183 105.898 119.237C105.159 119.295 104.404 118.622 103.709 117.434C103.466 117.02 103.25 116.575 103.062 116.129L102.97 115.904L102.855 115.601C102.845 115.574 102.838 115.554 102.833 115.54Z" fill="#DD936F"/>
<path d="M100.726 117.843C100.575 117.879 100.483 118.031 100.52 118.182L100.563 118.342L100.642 118.608C100.656 118.655 100.672 118.703 100.688 118.753C100.828 119.177 100.995 119.602 101.193 120C101.924 121.477 102.873 122.246 104.052 121.794C104.886 121.474 105.214 120.875 105.087 120.136C105.026 119.774 104.861 119.4 104.625 119.025C104.522 118.861 104.411 118.707 104.301 118.568L104.197 118.441C104.178 118.419 104.162 118.401 104.149 118.387C104.045 118.272 103.867 118.264 103.753 118.368C103.639 118.473 103.63 118.65 103.735 118.764L103.798 118.838C103.817 118.861 103.838 118.887 103.861 118.916C103.96 119.04 104.058 119.178 104.15 119.324C104.35 119.641 104.487 119.952 104.535 120.23C104.616 120.71 104.432 121.048 103.851 121.271C103.034 121.584 102.313 121 101.695 119.751C101.511 119.379 101.353 118.979 101.221 118.578C101.19 118.484 101.163 118.395 101.138 118.311L101.065 118.048C101.032 117.915 100.908 117.827 100.776 117.835L100.726 117.843Z" fill="#DD936F"/>
<path d="M145.113 158.771C144.936 158.878 144.88 159.108 144.987 159.285L145.41 159.971L145.809 160.606C146.135 161.12 146.49 161.674 146.871 162.259C148.325 164.488 149.86 166.717 151.409 168.799C152.531 170.306 153.619 171.681 154.66 172.892C156.643 175.2 158.399 176.853 159.883 177.725C159.986 177.785 160.112 177.792 160.22 177.746L160.272 177.718L172.513 169.962C172.688 169.852 172.739 169.62 172.629 169.446C172.528 169.287 172.328 169.23 172.162 169.304L172.113 169.33L160.069 176.962L159.968 176.899C158.679 176.067 157.146 174.613 155.426 172.635L155.227 172.405C154.199 171.208 153.121 169.847 152.009 168.352C150.47 166.284 148.943 164.067 147.498 161.851L147.127 161.279C146.826 160.812 146.544 160.369 146.282 159.953L145.892 159.329L145.627 158.897C145.52 158.72 145.29 158.664 145.113 158.771Z" fill="#253368"/>
<path d="M139.922 160.106C139.85 159.969 139.68 159.916 139.543 159.988C139.421 160.052 139.366 160.193 139.406 160.32L139.425 160.367L146.002 172.884C146.074 173.021 146.244 173.074 146.381 173.002C146.503 172.938 146.558 172.797 146.518 172.67L146.499 172.623L139.922 160.106Z" fill="#DD936F"/>
<path fill-rule="evenodd" clip-rule="evenodd" d="M247.955 202.24C252.863 200.195 255.321 194.675 253.556 189.659L237.57 144.227C235.218 137.546 227.734 134.214 221.196 136.938C214.734 139.63 211.807 147.155 214.75 153.505L235.005 197.202C237.268 202.087 242.986 204.31 247.955 202.24Z" fill="#FFC999"/>
<path fill-rule="evenodd" clip-rule="evenodd" d="M247.293 171.583L237.277 142.757C234.405 136.493 223.844 134.007 217.631 136.991C211.419 139.974 208.861 147.473 211.955 153.631L226.09 181.766C226.09 181.766 241.956 178.07 247.293 171.583Z" fill="#597EF7"/>
<path d="M218.528 160.531C218.447 160.341 218.227 160.253 218.037 160.334C217.865 160.407 217.776 160.595 217.822 160.772L217.84 160.824L226.662 181.554C226.737 181.732 226.936 181.823 227.12 181.764L227.898 181.506L228.619 181.261C229.202 181.06 229.831 180.838 230.494 180.598C233.023 179.683 235.552 178.685 237.914 177.636L238.595 177.33C242.183 175.698 244.997 174.102 246.772 172.586C247.065 172.335 247.329 172.087 247.564 171.841C247.706 171.692 247.701 171.455 247.551 171.313C247.402 171.17 247.165 171.176 247.022 171.325C246.806 171.551 246.561 171.782 246.286 172.017C244.468 173.57 241.463 175.241 237.61 176.952C235.266 177.993 232.753 178.985 230.24 179.895L229.592 180.127C229.063 180.316 228.56 180.491 228.089 180.652L227.216 180.946L218.528 160.531Z" fill="#253368"/>
<path fill-rule="evenodd" clip-rule="evenodd" d="M186.378 196.801C186.667 199.72 189.09 201.963 192.023 202.026L243.569 203.139C249.488 203.266 254.226 198.259 253.771 192.355C253.327 186.586 248.099 182.392 242.37 183.21L191.329 190.492C188.255 190.931 186.073 193.712 186.378 196.801Z" fill="#FFC999"/>
<path fill-rule="evenodd" clip-rule="evenodd" d="M190.597 210.057L179.264 174.605C179.077 174.02 178.538 173.621 177.924 173.613L146.145 173.183C145.158 173.17 144.456 174.138 144.776 175.072L156.607 209.582C156.797 210.137 157.308 210.519 157.894 210.545L189.176 211.917C190.168 211.96 190.9 211.003 190.597 210.057Z" fill="#4E5C93"/>
<path fill-rule="evenodd" clip-rule="evenodd" d="M188.922 209.624L177.786 174.79C177.56 174.083 176.907 173.599 176.164 173.588L143.992 173.153C143.302 173.144 142.811 173.822 143.035 174.474L155.03 209.462C155.24 210.077 155.805 210.5 156.454 210.528L187.201 211.877C188.402 211.929 189.289 210.769 188.922 209.624Z" fill="#253368"/>
<path fill-rule="evenodd" clip-rule="evenodd" d="M173.43 176.945C173.071 177.346 173.2 178.048 173.719 178.516C174.238 178.983 174.951 179.037 175.311 178.637C175.671 178.237 175.542 177.534 175.022 177.067C174.503 176.599 173.79 176.545 173.43 176.945Z" fill="#ADC6FF"/>
<path fill-rule="evenodd" clip-rule="evenodd" d="M173.857 177.364C173.67 177.571 173.737 177.936 174.007 178.179C174.277 178.421 174.647 178.449 174.834 178.242C175.02 178.034 174.953 177.669 174.684 177.426C174.414 177.184 174.044 177.156 173.857 177.364Z" fill="#E4EBF7"/>
<path fill-rule="evenodd" clip-rule="evenodd" d="M176.451 203.39C174.625 203.213 173.665 202.45 173.838 200.929C171.641 200.238 171.887 198.377 171.887 198.377C171.887 198.377 167.659 198.312 166.948 196.506C166.672 195.804 167.208 195.054 167.96 195.003C177.017 194.389 183.475 189.59 183.475 189.59C183.475 189.59 179.914 184.362 180.291 181.948C180.402 181.235 181.335 181.005 181.771 181.58C185.505 186.508 192.992 190.372 192.992 190.372C192.992 190.372 201.98 198.793 192.231 202.611C192.231 202.611 184.799 205.573 179.625 205.197C177.174 205.02 176.451 203.39 176.451 203.39Z" fill="#FFC999"/>
<path d="M178.548 196.772C178.472 196.637 178.301 196.589 178.166 196.664C177.517 197.027 176.76 197.322 175.914 197.556C174.907 197.834 173.825 198.012 172.736 198.108L172.405 198.135C171.979 198.167 171.613 198.182 171.328 198.185L171.118 198.186C170.963 198.184 170.836 198.307 170.834 198.462C170.832 198.602 170.932 198.719 171.065 198.742L171.11 198.746L171.226 198.747C171.605 198.746 172.142 198.724 172.786 198.667C173.906 198.567 175.02 198.384 176.063 198.096C176.95 197.851 177.749 197.54 178.44 197.154C178.575 197.078 178.623 196.907 178.548 196.772Z" fill="#DD936F"/>
<path d="M179.4 199.555C179.333 199.416 179.165 199.358 179.025 199.425C178.942 199.465 178.858 199.505 178.773 199.543C177.697 200.028 176.542 200.339 175.383 200.51C174.666 200.616 174.093 200.65 173.735 200.647C173.576 200.645 173.449 200.769 173.447 200.924C173.445 201.063 173.545 201.18 173.678 201.204L173.723 201.208H173.824L174.031 201.203C174.401 201.19 174.89 201.15 175.464 201.065C176.672 200.887 177.876 200.563 179.003 200.054C179.093 200.014 179.182 199.972 179.27 199.93C179.409 199.862 179.467 199.695 179.4 199.555Z" fill="#DD936F"/>
<path d="M181.012 202.665C180.944 202.526 180.777 202.467 180.637 202.535C180.339 202.679 179.635 202.814 178.677 202.924C178.187 202.981 177.662 203.028 177.136 203.066L176.436 203.11C176.282 203.118 176.163 203.25 176.171 203.405C176.179 203.559 176.31 203.678 176.465 203.67L177.039 203.635L177.177 203.625C177.71 203.587 178.243 203.539 178.741 203.481L179.091 203.439C179.935 203.329 180.549 203.2 180.882 203.04C181.021 202.972 181.079 202.805 181.012 202.665Z" fill="#DD936F"/>
<path d="M242.332 182.932L192.564 189.73C192.41 189.751 192.303 189.893 192.324 190.046C192.343 190.184 192.459 190.285 192.594 190.289L192.64 190.286L242.408 183.487C242.562 183.466 242.669 183.325 242.648 183.172C242.629 183.033 242.513 182.933 242.378 182.929L242.332 182.932Z" fill="#DD936F"/>
</g>
<path d="M236.937 102.486C236.937 105.3 239.218 107.58 242.032 107.58C244.845 107.58 247.126 105.3 247.126 102.486C247.126 99.6724 244.845 97.3916 242.032 97.3916C239.218 97.3916 236.937 99.6724 236.937 102.486Z" fill="#597EF7"/>
<path d="M227.631 122.592C227.631 124.242 228.969 125.58 230.62 125.58C232.271 125.58 233.609 124.242 233.609 122.592C233.609 120.941 232.271 119.603 230.62 119.603C228.969 119.603 227.631 120.941 227.631 122.592Z" fill="#597EF7"/>
<path d="M231.218 220.282L231.218 219.875C231.218 216.723 233.772 214.169 236.924 214.169C240.075 214.169 242.629 216.723 242.629 219.875V220.282C242.629 223.433 240.075 225.988 236.924 225.988C233.772 225.988 231.218 223.433 231.218 220.282Z" fill="#597EF7"/>
<defs>
<clipPath id="clip0">
<rect x="82.8146" y="44.7764" width="230.185" height="197.364" rx="98.6819" fill="white"/>
</clipPath>
</defs>
</svg>
